<svg viewBox="0 0 600 100" width="100%" height="100" preserveAspectRatio="none"><g><rect x="0" y="66.66666666666667" width="25" height="33.33333333333333" fill-opacity="0.4666666666666667"></rect><rect x="25" y="0" width="25" height="100" fill-opacity="1"></rect><rect x="50" y="66.66666666666667" width="25" height="33.33333333333333" fill-opacity="0.4666666666666667"></rect><rect x="75" y="0" width="25" height="100" fill-opacity="1"></rect><rect x="100" y="33.33333333333334" width="25" height="66.66666666666666" fill-opacity="0.7333333333333333"></rect><rect x="125" y="0" width="25" height="100" fill-opacity="1"></rect><rect x="150" y="0" width="25" height="100" fill-opacity="1"></rect><rect x="175" y="33.33333333333334" width="25" height="66.66666666666666" fill-opacity="0.7333333333333333"></rect><rect x="200" y="0" width="25" height="100" fill-opacity="1"></rect><rect x="225" y="66.66666666666667" width="25" height="33.33333333333333" fill-opacity="0.4666666666666667"></rect><rect x="250" y="66.66666666666667" width="25" height="33.33333333333333" fill-opacity="0.4666666666666667"></rect><rect x="275" y="33.33333333333334" width="25" height="66.66666666666666" fill-opacity="0.7333333333333333"></rect><rect x="300" y="66.66666666666667" width="25" height="33.33333333333333" fill-opacity="0.4666666666666667"></rect><rect x="325" y="0" width="25" height="100" fill-opacity="1"></rect><rect x="350" y="0" width="25" height="100" fill-opacity="1"></rect><rect x="375" y="66.66666666666667" width="25" height="33.33333333333333" fill-opacity="0.4666666666666667"></rect><rect x="400" y="33.33333333333334" width="25" height="66.66666666666666" fill-opacity="0.7333333333333333"></rect><rect x="425" y="0" width="25" height="100" fill-opacity="1"></rect><rect x="450" y="66.66666666666667" width="25" height="33.33333333333333" fill-opacity="0.4666666666666667"></rect><rect x="475" y="0" width="25" height="100" fill-opacity="1"></rect><rect x="500" y="0" width="25" height="100" fill-opacity="1"></rect><rect x="525" y="66.66666666666667" width="25" height="33.33333333333333" fill-opacity="0.4666666666666667"></rect><rect x="550" y="66.66666666666667" width="25" height="33.33333333333333" fill-opacity="0.4666666666666667"></rect><rect x="575" y="33.33333333333334" width="25" height="66.66666666666666" fill-opacity="0.7333333333333333"></rect></g></svg>