<svg width="600" height="600"><text x="5" y="595" id="p0_footer" class="p0_footer" text-anchor="left" fill="#999999" style="font-size: 10px; font-family: 'open sans';"></text><g transform="translate(300,302.5)" class="p0_pieChart"><g class="p0_arc" transform="rotate(0)"><path id="p0_segment0" fill="#00047c" style="stroke: rgb(255, 255, 255); stroke-width: 1px; fill: rgb(0, 4, 124);" d="M1.5522398179192702e-14,-253.5A253.5,253.5 0 0,1 188.38721325851944,-169.62460871197055L150.11525474643364,-135.16438248448935A202,202 0 0,0 1.2368932671388267e-14,-202Z" data-index="0"></path></g><g class="p0_arc" transform="rotate(48)"><path id="p0_segment1" fill="#2f3399" style="stroke: rgb(255, 255, 255); stroke-width: 1px;" d="M1.5522398179192702e-14,-253.5A253.5,253.5 0 0,1 103.10773901971535,-231.58377351239932L82.16080190131164,-184.5361824438054A202,202 0 0,0 1.2368932671388267e-14,-202Z" data-index="1"></path></g><g class="p0_arc" transform="rotate(72)"><path id="p0_segment2" fill="#2f52aa" style="stroke: rgb(255, 255, 255); stroke-width: 1px;" d="M1.5522398179192702e-14,-253.5A253.5,253.5 0 0,1 188.38721325851944,-169.62460871197055L150.11525474643364,-135.16438248448935A202,202 0 0,0 1.2368932671388267e-14,-202Z" data-index="2"></path></g><g class="p0_arc" transform="rotate(120)"><path id="p0_segment3" fill="#2e58c9" style="stroke: rgb(255, 255, 255); stroke-width: 1px;" d="M1.5522398179192702e-14,-253.5A253.5,253.5 0 0,1 241.09282688082143,-78.33580807404917L192.113416291621,-62.421432863739376A202,202 0 0,0 1.2368932671388267e-14,-202Z" data-index="3"></path></g><g class="p0_arc" transform="rotate(192)"><path id="p0_segment4" fill="#4d6fcc" style="stroke: rgb(255, 255, 255); stroke-width: 1px;" d="M1.5522398179192702e-14,-253.5A253.5,253.5 0 0,1 103.10773901971535,-231.58377351239932L82.16080190131164,-184.5361824438054A202,202 0 0,0 1.2368932671388267e-14,-202Z" data-index="4"></path></g><g class="p0_arc" transform="rotate(216)"><path id="p0_segment5" fill="#738def" style="stroke: rgb(255, 255, 255); stroke-width: 1px;" d="M1.5522398179192702e-14,-253.5A253.5,253.5 0 0,1 103.10773901971535,-231.58377351239932L82.16080190131164,-184.5361824438054A202,202 0 0,0 1.2368932671388267e-14,-202Z" data-index="5"></path></g><g class="p0_arc" transform="rotate(240)"><path id="p0_segment6" fill="#779fdd" style="stroke: rgb(255, 255, 255); stroke-width: 1px;" d="M1.5522398179192702e-14,-253.5A253.5,253.5 0 0,1 188.38721325851944,-169.62460871197055L150.11525474643364,-135.16438248448935A202,202 0 0,0 1.2368932671388267e-14,-202Z" data-index="6"></path></g><g class="p0_arc" transform="rotate(288)"><path id="p0_segment7" fill="#9db5f2" style="stroke: rgb(255, 255, 255); stroke-width: 1px;" d="M1.5522398179192702e-14,-253.5A253.5,253.5 0 0,1 241.09282688082143,-78.33580807404917L192.113416291621,-62.421432863739376A202,202 0 0,0 1.2368932671388267e-14,-202Z" data-index="7"></path></g></g><g class="p0_labels-inner"><g id="p0_labelGroup0-inner" data-index="0" class="p0_labelGroup-inner" transform="translate(393.7979891893137,91.82626696253132)" style="opacity: 1;"></g><g id="p0_labelGroup1-inner" data-index="1" class="p0_labelGroup-inner" transform="translate(499.715080617178,187.19444444444443)" style="opacity: 1;"></g><g id="p0_labelGroup2-inner" data-index="2" class="p0_labelGroup-inner" transform="translate(529.3477993152057,326.6054250568905)" style="opacity: 1;"></g><g id="p0_labelGroup3-inner" data-index="3" class="p0_labelGroup-inner" transform="translate(393.79798918931374,513.1737330374687)" style="opacity: 1;"></g><g id="p0_labelGroup4-inner" data-index="4" class="p0_labelGroup-inner" transform="translate(206.20201081068635,513.1737330374688)" style="opacity: 1;"></g><g id="p0_labelGroup5-inner" data-index="5" class="p0_labelGroup-inner" transform="translate(128.62254608018537,456.80895261086783)" style="opacity: 1;"></g><g id="p0_labelGroup6-inner" data-index="6" class="p0_labelGroup-inner" transform="translate(70.65220068479428,326.6054250568905)" style="opacity: 1;"></g><g id="p0_labelGroup7-inner" data-index="7" class="p0_labelGroup-inner" transform="translate(164.45018987410793,115.9316920194219)" style="opacity: 1;"></g></g><g class="p0_labels-outer"><g id="p0_labelGroup0-outer" data-index="0" class="p0_labelGroup-outer" transform="translate(424.12331159814096,41.68277184303747)" style="opacity: 1;"></g><g id="p0_labelGroup1-outer" data-index="1" class="p0_labelGroup-outer" transform="translate(555.2502527804572,159.74999999999997)" style="opacity: 1;"></g><g id="p0_labelGroup2-outer" data-index="2" class="p0_labelGroup-outer" transform="translate(591.936001127642,332.342876262915)" style="opacity: 1;"></g><g id="p0_labelGroup3-outer" data-index="3" class="p0_labelGroup-outer" transform="translate(424.123311598141,563.3172281569625)" style="opacity: 1;"></g><g id="p0_labelGroup4-outer" data-index="4" class="p0_labelGroup-outer" transform="translate(175.87668840185916,563.3172281569625)" style="opacity: 1;"></g><g id="p0_labelGroup5-outer" data-index="5" class="p0_labelGroup-outer" transform="translate(79.83215232620401,493.5367881154541)" style="opacity: 1;"></g><g id="p0_labelGroup6-outer" data-index="6" class="p0_labelGroup-outer" transform="translate(8.063998872357956,332.342876262915)" style="opacity: 1;"></g><g id="p0_labelGroup7-outer" data-index="7" class="p0_labelGroup-outer" transform="translate(124.18731047049886,71.52564810595257)" style="opacity: 1;"></g></g><g class="p0_tooltips"><g class="p0_tooltip" id="p0_tooltip0" transform="translate(1600,1600)" style="opacity: 0;"><rect rx="2" ry="2" x="-4" opacity="0.5" style="fill: rgb(0, 0, 0);" width="152.078125" height="25" y="-18.5"></rect><text fill="#efefef" style="font-size: 16px; font-family: arial;">Medications: 2, 13%</text></g><g class="p0_tooltip" id="p0_tooltip1" style="opacity: 0;"><rect rx="2" ry="2" x="-4" opacity="0.5" style="fill: rgb(0, 0, 0);" width="91.59375" height="25" y="-18.5"></rect><text fill="#efefef" style="font-size: 16px; font-family: arial;">Falls: 1, 6%</text></g><g class="p0_tooltip" id="p0_tooltip2" style="opacity: 0;"><rect rx="2" ry="2" x="-4" opacity="0.5" style="fill: rgb(0, 0, 0);" width="221.453125" height="25" y="-18.5"></rect><text fill="#efefef" style="font-size: 16px; font-family: arial;">Functional Limitations: 2, 13%</text></g><g class="p0_tooltip" id="p0_tooltip3" style="opacity: 0;"><rect rx="2" ry="2" x="-4" opacity="0.5" style="fill: rgb(0, 0, 0);" width="170.734375" height="25" y="-18.5"></rect><text fill="#efefef" style="font-size: 16px; font-family: arial;">Social Barriers: 3, 20%</text></g><g class="p0_tooltip" id="p0_tooltip4" style="opacity: 0;"><rect rx="2" ry="2" x="-4" opacity="0.5" style="fill: rgb(0, 0, 0);" width="156.53125" height="25" y="-18.5"></rect><text fill="#efefef" style="font-size: 16px; font-family: arial;">Mental Health: 1, 6%</text></g><g class="p0_tooltip" id="p0_tooltip5" style="opacity: 0;"><rect rx="2" ry="2" x="-4" opacity="0.5" style="fill: rgb(0, 0, 0);" width="127.171875" height="25" y="-18.5"></rect><text fill="#efefef" style="font-size: 16px; font-family: arial;">Utilization: 1, 6%</text></g><g class="p0_tooltip" id="p0_tooltip6" style="opacity: 0;"><rect rx="2" ry="2" x="-4" opacity="0.5" style="fill: rgb(0, 0, 0);" width="148.515625" height="25" y="-18.5"></rect><text fill="#efefef" style="font-size: 16px; font-family: arial;">Admissions: 2, 13%</text></g><g class="p0_tooltip" id="p0_tooltip7" style="opacity: 0;"><rect rx="2" ry="2" x="-4" opacity="0.5" style="fill: rgb(0, 0, 0);" width="201.890625" height="25" y="-18.5"></rect><text fill="#efefef" style="font-size: 16px; font-family: arial;">Chronic Conditions: 3, 20%</text></g></g></svg>