<?xml version="1.0" ?><!DOCTYPE svg  PUBLIC '-//W3C//DTD SVG 1.1//EN'  'http://www.w3.org/Graphics/SVG/1.1/DTD/svg11.dtd'><svg enable-background="new 0 0 48 48" version="1.1" viewBox="0 0 48 48" xml:space="preserve" xmlns="http://www.w3.org/2000/svg" xmlns:xlink="http://www.w3.org/1999/xlink"><g id="Layer_2"><path d="M12,22V12c0-1.7,1.3-3,3-3h2c0.6,0,1,0.4,1,1s-0.4,1-1,1h-2c-0.6,0-1,0.4-1,1v10c0,0.6-0.4,1-1,1   S12,22.6,12,22z M37,9h-2c-0.6,0-1,0.4-1,1s0.4,1,1,1h2c0.6,0,1,0.4,1,1v30c0,0.6-0.4,1-1,1H15c-0.6,0-1-0.4-1-1V32   c0-0.6-0.4-1-1-1s-1,0.4-1,1v10c0,1.7,1.3,3,3,3h22c1.7,0,3-1.3,3-3V12C40,10.3,38.7,9,37,9z M19,12V9c0-1.1,0.9-2,2-2h1   c0-2.2,1.8-4,4-4s4,1.8,4,4h1c1.1,0,2,0.9,2,2v3c0,1.1-0.9,2-2,2H21C19.9,14,19,13.1,19,12z M24,7h4c0-1.1-0.9-2-2-2S24,5.9,24,7z    M21,12h10V9H21V12z M15.5,28.4l1.2-2.7l1.6,6.9c0.1,0.4,0.4,0.7,0.8,0.8c0.4,0.1,0.8-0.1,1-0.5l2.1-3.8h4.1c0.4,0,0.8-0.3,1-0.7   l1.1-3.7l1.7,10.2c0.1,0.5,0.4,0.8,0.9,0.8c0,0,0.1,0,0.1,0c0.4,0,0.8-0.3,0.9-0.7l2.1-6H35c0.6,0,1-0.4,1-1s-0.4-1-1-1h-1.6   c-0.4,0-0.8,0.3-0.9,0.7l-1.1,3L29.7,20c-0.1-0.5-0.5-0.8-0.9-0.8c-0.5,0-0.9,0.3-1,0.7L25.6,27h-4c-0.4,0-0.7,0.2-0.9,0.5l-1.1,2   l-1.7-7.3c-0.1-0.4-0.5-0.7-0.9-0.8c-0.4,0-0.8,0.2-1,0.6L13.9,27H9c-0.6,0-1,0.4-1,1s0.4,1,1,1h5.6C15,29,15.4,28.8,15.5,28.4z" fill="#303030"/></g></svg>