<?xml version="1.0" encoding="utf-8"?>
<!-- Generator: Adobe Illustrator 16.0.4, SVG Export Plug-In . SVG Version: 6.00 Build 0)  -->
<!DOCTYPE svg PUBLIC "-//W3C//DTD SVG 1.1//EN" "http://www.w3.org/Graphics/SVG/1.1/DTD/svg11.dtd">
<svg version="1.1" id="blue_x5F_rnd_x5F_" xmlns="http://www.w3.org/2000/svg" xmlns:xlink="http://www.w3.org/1999/xlink" x="0px"
	 y="0px" width="155.464px" height="179.345px" viewBox="139.432 82.149 155.464 179.345"
	 enable-background="new 139.432 82.149 155.464 179.345" xml:space="preserve">
<g>
	<path fill="#333333" d="M189.511,98.138c-3.855-12.083-16.776-18.752-28.859-14.896l-5.231,1.669
		c-12.083,3.855-18.752,16.775-14.896,28.859l22.513,70.547c3.855,12.082,16.776,18.755,28.86,14.896l5.23-1.671
		c12.084-3.854,18.752-16.776,14.896-28.858L189.511,98.138z M160.985,146.108l-11.256-35.273
		c-2.229-6.988,1.64-14.488,8.628-16.718l5.232-1.671c6.987-2.229,14.486,1.643,16.717,8.631l11.255,35.273L160.985,146.108z
		 M280.569,148.642l-5.086-2.067c-11.752-4.773-25.147,0.881-29.922,12.631l-27.877,68.604
		c-4.774,11.747,0.881,25.146,12.631,29.919l5.086,2.069c11.75,4.773,25.146-0.881,29.92-12.631l27.879-68.604
		C297.974,166.813,292.321,153.417,280.569,148.642z M284.248,174.926l-13.938,34.302l-29.731-12.081l13.938-34.303
		c2.762-6.795,10.534-10.079,17.33-7.317l5.09,2.067C283.728,160.355,287.01,168.13,284.248,174.926z"/>
</g>
<path fill="#FFFFFF" stroke="#000000" stroke-miterlimit="10" d="M-671.337-298.678"/>
</svg>
